<?xml version="1.0" standalone="no"?>
<!DOCTYPE svg PUBLIC "-//W3C//DTD SVG 20010904//EN"
 "http://www.w3.org/TR/2001/REC-SVG-20010904/DTD/svg10.dtd">
<svg version="1.0" xmlns="http://www.w3.org/2000/svg"
 width="720.000000pt" height="720.000000pt" viewBox="0 0 720.000000 720.000000"
 preserveAspectRatio="xMidYMid meet">
<metadata>
Created by potrace 1.14, written by Peter Selinger 2001-2017
</metadata>
<g transform="translate(0.000000,720.000000) scale(0.100000,-0.100000)"
fill="#000000" stroke="none">
<path d="M307 5884 c-4 -4 -7 -11 -7 -16 0 -10 85 -94 251 -248 62 -58 136
-127 165 -155 28 -27 98 -93 155 -145 202 -186 203 -187 226 -287 51 -209 63
-260 72 -288 5 -16 21 -77 35 -135 14 -58 32 -132 40 -165 27 -114 48 -190 62
-234 21 -63 11 -68 -85 -43 -79 20 -86 20 -303 6 -123 -8 -238 -18 -257 -22
l-33 -7 78 -41 c44 -23 203 -104 354 -181 392 -200 363 -181 378 -244 7 -30
18 -69 24 -88 5 -18 18 -70 28 -115 22 -95 45 -189 67 -266 8 -30 23 -89 34
-130 10 -41 27 -111 38 -155 11 -44 32 -125 45 -180 14 -55 32 -125 41 -155 8
-30 20 -77 26 -105 6 -27 15 -66 19 -85 5 -19 15 -62 23 -95 8 -33 31 -122 52
-199 20 -76 34 -144 31 -151 -2 -7 -29 -29 -58 -48 -29 -19 -145 -95 -258
-168 -113 -74 -229 -150 -257 -168 -29 -18 -53 -36 -53 -40 0 -7 115 10 155
22 11 4 70 16 130 27 61 11 166 31 235 45 69 13 152 29 185 35 33 6 74 15 91
21 17 5 43 9 58 9 15 0 55 6 89 14 34 8 130 27 212 41 83 14 170 30 195 35 25
5 101 19 170 30 69 12 192 35 274 51 100 20 152 27 159 20 6 -6 13 -69 17
-141 4 -72 10 -133 12 -136 3 -2 29 11 58 31 28 19 54 35 57 35 2 0 33 20 69
46 36 25 75 49 87 54 12 5 35 20 51 34 16 14 33 26 38 26 5 0 13 10 19 23 22
48 66 121 76 124 6 2 31 -30 56 -72 33 -56 56 -82 84 -97 21 -11 40 -23 43
-27 3 -4 16 -12 30 -18 14 -7 43 -24 65 -38 22 -14 47 -28 55 -32 8 -3 17 -9
20 -12 7 -8 36 -26 83 -52 63 -33 67 -26 67 113 0 136 6 156 38 139 11 -6 35
-11 52 -11 32 0 177 -24 240 -40 19 -5 91 -19 160 -30 69 -12 148 -25 175 -30
28 -4 106 -18 175 -29 69 -12 157 -28 195 -36 104 -22 316 -65 435 -87 110
-20 143 -27 275 -53 152 -30 165 -32 165 -25 0 4 -75 64 -167 133 -93 69 -178
134 -190 144 -12 10 -34 27 -49 38 -96 69 -146 110 -151 121 -6 16 12 109 37
189 10 33 21 78 25 100 3 22 15 69 25 105 11 36 31 112 46 170 14 58 30 119
34 135 5 17 20 75 35 130 15 55 31 116 37 135 5 19 13 53 17 75 4 22 18 78 30
125 36 140 80 312 94 370 41 164 60 237 66 250 9 16 40 34 121 69 30 13 105
48 165 76 143 68 223 105 228 105 3 0 67 29 142 65 75 36 140 65 145 65 13 0
70 34 70 43 0 4 -120 7 -267 7 -205 -1 -283 -4 -333 -16 -117 -28 -170 -37
-175 -32 -3 3 3 34 14 69 10 35 26 96 36 134 9 39 23 93 31 120 8 28 30 118
50 200 19 83 39 161 44 175 4 14 28 106 52 205 46 194 52 205 148 275 18 14
38 30 44 36 6 6 18 15 27 20 9 5 45 34 79 64 35 30 90 77 124 103 69 54 140
113 167 140 11 9 21 17 25 17 11 0 142 112 148 126 8 21 -1 34 -22 34 -15 0
-139 -44 -197 -70 -11 -5 -108 -41 -215 -80 -186 -69 -284 -99 -540 -170 -63
-17 -146 -40 -185 -51 -85 -24 -186 -52 -280 -77 -38 -11 -131 -37 -205 -57
-74 -21 -157 -44 -185 -51 -46 -12 -171 -46 -290 -79 -27 -7 -93 -25 -145 -39
-52 -14 -117 -31 -145 -39 -236 -67 -406 -110 -412 -103 -6 5 -1 37 37 265 11
68 19 128 18 133 -2 5 -74 -60 -160 -144 -86 -84 -186 -182 -223 -217 -36 -36
-70 -72 -75 -81 -5 -9 -5 -46 0 -85 5 -39 10 -108 10 -155 0 -62 23 -381 29
-419 2 -8 111 17 276 64 28 8 86 23 130 34 111 28 192 50 245 67 25 8 54 14
66 14 11 0 24 3 28 7 4 4 31 13 59 19 29 6 97 23 152 39 55 15 114 31 130 35
17 4 71 19 120 33 50 14 126 35 169 47 44 11 87 25 97 31 18 9 59 13 59 4 0
-2 -11 -28 -24 -57 -29 -61 -72 -157 -93 -208 -15 -35 -22 -51 -83 -185 -17
-38 -40 -88 -50 -110 -10 -22 -42 -92 -72 -155 l-55 -115 -54 -22 c-136 -55
-403 -158 -489 -189 -52 -19 -151 -58 -220 -85 -69 -28 -152 -61 -185 -74 -33
-12 -118 -46 -190 -74 -71 -28 -149 -57 -173 -65 l-43 -16 -262 106 c-144 57
-275 111 -292 118 -16 8 -61 26 -100 41 -256 99 -258 100 -317 124 -114 47
-306 121 -314 121 -15 1 -54 37 -54 50 0 7 -9 29 -19 49 -10 20 -26 52 -34 71
-20 47 -153 343 -182 405 -12 28 -33 73 -45 100 -12 28 -33 73 -46 101 -13 28
-24 56 -24 62 0 15 36 16 45 2 3 -5 15 -10 25 -10 11 0 39 -6 62 -14 24 -7 63
-19 88 -25 97 -27 147 -40 190 -52 25 -6 65 -17 90 -24 25 -8 63 -18 85 -24
22 -6 67 -18 100 -27 33 -9 78 -20 100 -26 22 -6 58 -16 80 -24 23 -8 48 -14
58 -14 9 0 45 -9 79 -19 35 -10 101 -29 148 -41 47 -13 89 -27 94 -31 6 -5 28
-9 51 -9 23 0 45 -4 51 -10 10 -10 80 -28 147 -37 l37 -5 1 68 c0 38 5 105 10
149 5 44 14 161 18 260 9 175 8 181 -12 212 -12 18 -26 33 -31 33 -6 0 -99 89
-208 197 -108 108 -200 194 -203 191 -3 -3 1 -39 9 -79 50 -248 61 -349 37
-335 -4 3 -40 14 -81 25 -41 11 -124 34 -185 51 -60 17 -126 35 -145 40 -19 4
-78 20 -130 35 -52 14 -126 35 -165 45 -88 23 -418 113 -510 139 -38 11 -104
30 -145 41 -41 11 -100 28 -130 37 -30 8 -120 33 -200 54 -80 22 -179 49 -220
60 -41 12 -101 28 -133 35 -52 13 -218 70 -272 94 -11 5 -67 28 -125 51 -58
22 -114 45 -125 49 -221 94 -256 106 -268 94z m2081 -2633 c9 -6 49 -19 87
-31 39 -12 79 -25 90 -30 11 -4 76 -24 145 -45 69 -21 177 -55 240 -75 63 -21
189 -61 280 -90 163 -51 236 -75 275 -90 11 -4 56 -19 101 -33 l80 -27 85 26
c46 14 93 29 104 34 11 5 67 23 125 41 171 51 354 110 375 120 11 5 45 15 75
24 63 17 175 52 205 65 24 10 362 120 370 120 3 0 5 -4 5 -9 0 -9 -129 -283
-153 -326 -6 -11 -27 -54 -48 -95 -122 -250 -172 -359 -181 -387 -5 -18 -19
-38 -31 -45 -13 -7 -94 -15 -192 -19 -93 -5 -260 -13 -370 -18 -246 -13 -556
-13 -775 -1 -91 5 -235 12 -320 16 -85 4 -165 11 -178 15 -12 5 -27 21 -33 36
-6 16 -28 64 -49 108 -21 44 -55 116 -75 160 -21 44 -89 184 -151 311 -63 128
-114 237 -114 243 0 13 5 14 28 2z"/>
</g>
</svg>
